<?xml version="1.0" encoding="utf-8"?><svg xmlns="http://www.w3.org/2000/svg" xmlns:xlink="http://www.w3.org/1999/xlink" width="60px" height="60px" viewBox="0 0 100 100" preserveAspectRatio="xMidYMid" style="margin-right:-2px;display:block;background-repeat-y:initial;background-repeat-x:initial;animation-play-state:paused" ><g transform="translate(50 50)" style="transform:matrix(1, 0, 0, 1, 50, 50);animation-play-state:paused" ><g transform="matrix(1,0,0,1,0,0)" style="transform:matrix(1, 0, 0, 1, 0, 0);animation-play-state:paused" ><path d="M25.937424698685874 -7.5 L33.937424698685874 -7.5 L33.937424698685874 7.5 L25.937424698685874 7.5 A27 27 0 0 1 19.463902877726227 18.712468697807903 L19.463902877726227 18.712468697807903 L23.463902877726227 25.640671928083414 L10.473521820959652 33.140671928083414 L6.473521820959651 26.212468697807903 A27 27 0 0 1 -6.4735218209596415 26.212468697807907 L-6.4735218209596415 26.212468697807907 L-10.47352182095964 33.140671928083414 L-23.463902877726223 25.640671928083417 L-19.463902877726223 18.712468697807907 A27 27 0 0 1 -25.93742469868587 7.500000000000008 L-25.93742469868587 7.500000000000008 L-33.937424698685874 7.500000000000009 L-33.937424698685874 -7.500000000000001 L-25.937424698685874 -7.500000000000002 A27 27 0 0 1 -19.46390287772624 -18.712468697807896 L-19.46390287772624 -18.712468697807896 L-23.463902877726245 -25.640671928083403 L-10.47352182095967 -33.14067192808341 L-6.473521820959665 -26.2124686978079 A27 27 0 0 1 6.473521820959633 -26.21246869780791 L6.473521820959633 -26.21246869780791 L10.473521820959627 -33.14067192808342 L23.463902877726206 -25.640671928083435 L19.46390287772621 -18.712468697807925 A27 27 0 0 1 25.937424698685874 -7.5 M0 -14A14 14 0 1 0 0 14 A14 14 0 1 0 0 -14" fill="#ffffff" style="animation-play-state:paused" ></path></g></g><!-- generated by https://loading.io/ --></svg>